<svg xmlns="http://www.w3.org/2000/svg" viewBox="-48 80 1120 1040"><path d="M324.5 1120q-46 0-89-18l12.5-97.5-88 47c-21.333-21.67-37.917-46.75-49.75-75.25Q92.5 933.5 92.5 888q0-74 43.5-134.5-52.5-11.5-94-44t-65.75-80-24.25-103v-8q0-4 .5-8l90-21.5-65-67q30-59 86-93t121-34q51 0 99 22.5-1-7.5-1.5-15.25t-.5-15.75q0-47.5 22.25-89.5t61.75-72.75T456 80l56 89.5L568 80q51.5 13.5 90.75 44.25t61.5 72.75 22.25 89.5q0 8-.5 15.75a225 225 0 0 1-1.5 15.25q48-22.5 99-22.5 65.5 0 121.25 34t85.75 93l-65 67 90 21.5c.33 2.667.5 5.333.5 8v8q0 55.5-24 103c-16 31.667-37.92 58.333-65.75 80Q940.5 742 888 753.5 931.5 814 931.5 888q0 45.5-17.5 88.25c-11.667 28.5-28.333 53.58-50 75.25l-88-47 12.5 97.5q-42.5 18-89 18c-37.333 0-72.5-8.58-105.5-25.75q-49.5-25.755-82-69.75-32 43.995-81.75 69.75c-33.167 17.17-68.417 25.75-105.75 25.75m102-450.5q11 0 19-8t8-19-8-19-19-8-19 8-8 19 8 19 19 8m85.5 62q11.5 0 19.75-8.25T540 703.5t-8.25-19.75T512 675.5t-19.75 8.25T484 703.5t8.25 19.75T512 731.5m0 88q-24.5-69-72.75-104.75T331.5 676.5q29-28.5 45.75-67.25T394 526.5q0-38.5-13-73.5 27 21.5 60.5 33.5t70.5 12 70.5-12T643 453q-13 35-13 73.5 0 44 16.75 82.75t45.75 67.25Q633 679 585 714.75T512 819.5m0-163 40-32-20-40.5h-40l-20 40.5ZM324.5 1080c39.333 0 74.667-10.83 106-32.5s58.5-52.667 81.5-93q35 61 82.25 93.25T699.5 1080c14.333 0 29.333-1.83 45-5.5l-17.5-141 127.5 67.5q37-49 37-113 0-43.5-16-84.5t-46-74q53-3 97.25-28.5t72.5-67q28.245-41.5 32.25-92l-128-30 93-96q-27-38-68.5-59.5T839.5 335q-39 0-74.5 11.25t-71 35.25q5.5-29.5 7-51.25t1.5-43.75q0-49.5-32-92.5T585 128l-73 117.5L439 128q-53 23-85.25 66t-32.25 92.5q0 22 1.5 43.75t7 51.25q-35-24-70.75-35.25T184.5 335q-47 0-88.5 21.5T27.5 416l93 96-128 30Q-3 592.5 25 634t72.25 67 97.25 28.5q-30 33-46 74t-16 84.5q0 64 37 113L297 933.5l-17.5 141c15.667 3.67 30.667 5.5 45 5.5m138-507.5q11 0 19-8t8-19q0-11.5-8-19.25t-19-7.75-19 7.75-8 19.25q0 11 8 19t19 8m135 97q11 0 19-8t8-19-8-19-19-8-19 8-8 19 8 19 19 8m-36-97q11.5 0 19.5-8t8-19q0-11.5-8-19.25t-19.5-7.75q-11 0-18.75 7.75T535 545.5q0 11 7.75 19t18.75 8"/></svg>