<svg xmlns="http://www.w3.org/2000/svg" viewBox="72 80 880 1040"><path d="M202 831q-35 0-54.5-8t-25-28q22.5-4 30.75-13.75t8.25-26.75q0-13-9.25-31.25T122.5 678.5Q95 642 83.5 612.75T72 543.5q0-21 5.5-39.25t15-39.25q-12-24-12-48.5 0-23.5 8.75-43.25T119 340q-5.5-19.5-5.5-40.5 0-42 24.25-68.5T209 195q-5-14.5-5-30.5 0-21 12.25-39.5t35.25-31q11 27.5 29.75 39.5t43.25 12q18 0 35-7t37-16.5q30-14.5 70.75-28.25T568 80q56 0 102.5 14.25t76.75 39.25T784 191q33 2.5 62.25 20.75T898 259.5t35.25 65.75T946 400q0 34-14 65 9.5 20 14.75 38.5t5.25 40q0 40.5-9.5 69.5T906 678.5q-17.5 24-28.5 42.25t-11 33.75q0 17 8.25 26.75T905.5 795q-5 20-25 28t-54.5 8v-74.5q0-25 14-50t33-51.5q20.5-28.5 29.5-52.5t9-59q0-20.5-5.5-36.75T887 465q10-18 14.25-33.75T905.5 400q0-46.5-20.5-86.25t-55-64.5-77.5-25.75q-1.5-31-27-54.25T659 133t-91-13q-56 0-90.75 12.25T414.5 158.5q-20 10-42 18.5t-49 8.5q-22.5 0-42.5-7.25t-33-20.75q-2.5 8.5-2.5 19.5 0 12 3.25 21.25t11.75 24.25q-55 5-80.75 23.25T154 299.5q0 17 2.5 30t8.5 28q-26.5 11-35.25 25.5T121 416.5q0 12 3.75 23t11.25 24Q122.5 494 117.5 510t-5 33.5q0 35 10.75 58.75T155.5 655q19 26 32.75 51T202 756.5Zm107.5-78.5q0-32.5 13-56.75T361 654.5l13.5 18.5q-21 14.5-31 33.25t-10 46.25ZM516 779q-42.5 0-77-16.25T377 714l23-20q23.5 29 51.5 41.75T516 748.5t64.75-13T632.5 694l22.5 20q-27 32.5-61.75 48.75T516 779M377.5 622.5q-18.5 0-30.75-14t-12.25-33q0-19.5 12.25-33.5t30.75-14q19 0 31 14t12 33.5q0 19-12 33t-31 14m138 457.5c68.333 0 126.75-5.58 175.25-16.75s85.667-26.5 111.5-46Q841 988 841 950q0-9.5-3-18.75T828.5 909q-10-20.5-15.5-40.5t-5.5-42V549q0-49.5-11.5-82t-37.75-48.5-70.75-16q0-37-21-56.25T606 327q-51.5 0-92 24.5T433.5 407q-62.5 48.5-118.75 74.5T203.5 513l13-11.5q0 96 2 176.5t6.25 147.5 9.75 123c4.333 40.333 30.667 72.33 79 96s115.667 35.5 202 35.5m0 40c-96 0-172.333-15.08-229-45.25S199 1003.67 194 952q-6-63-10-131.25t-6-152-2-193.25q59.5-2.5 115.25-27.25T410.5 374q40-31 87.75-59T606 287q31 0 55.75 10t40 27.5 17.75 40q64 2 96 48.25t32 131.75v282q0 21 5 38.75t14 36.25q7 14 10.75 24.75T881 950q0 50.5-44.25 88.75c-29.5 25.5-71.5 45.42-126 59.75S591.167 1120 515.5 1120m183-367.5q0-27.5-10-46.25t-31-33.25l13.5-18.5q25.5 17 38.5 41.25t13 56.75Zm-56-130q-18.5 0-30.75-14t-12.25-33q0-19.5 12.25-33.5t30.75-14q19 0 31 14t12 33.5q0 19-12 33t-31 14"/></svg>