<svg xmlns="http://www.w3.org/2000/svg" viewBox="9 80 1006 1040"><path d="M60.5 1120c-15.333 0-27.75-4.33-37.25-13Q9 1093.995 9 1071c0-9 1.75-19.92 5.25-32.75S23.667 1009.33 32 990l189.5-449.5 36.5 15L69 1005q-9 21.495-13.5 35.25c-3 9.17-4.5 16.58-4.5 22.25q0 6.495 3 12c2 3.67 6.5 5.5 13.5 5.5 7.667 0 19.167-2.83 34.5-8.5a1945 1945 0 0 0 48-18.5l393.5-161 53 22-432 176.5c-26.333 10.67-47.5 18.25-63.5 22.75Q77 1120 60.5 1120m155.5-73q-46-21-80.25-53.25T84 921.5l21.5-46.5q19 51.5 61.25 91t99.25 59Zm138.5-56q-48.5-11.5-92-40.75t-74.5-70.5T145 792l24.5-54q9 59 43.75 108t87.25 80.5T414 964Zm167-63Q457 928 400 904t-100.5-66.25T231 740.5t-25-117q0-79 40-122.5t111.5-43.5q59.5 0 115.25 27.5t100.75 74.5T644.75 665 671 785q0 69.5-38.25 106.25T521.5 928m0-40q56.5 0 83-25t26.5-78q0-53.5-23.25-104.5t-62.5-92.5-88-66T358 497.5q-54.5 0-83 32t-28.5 94q0 54 22 101.75t60.25 84.25T416.5 867t105 21m-432-548q-20-7.5-37.25-17.75T19 299l29-30q11.5 7.5 23.5 14.75t27 14.75Zm136 111L157 415.5l27-39.5 58.5 36.5Zm578 577-45-7.5c-.333-8-1.917-16.33-4.75-25q-4.25-13-11.25-25.5l35-28q11.5 18.5 18.25 40.25t7.75 45.75m173 58-51.5-48.5 31-32 51.5 51.5Zm-806-859-44-14.5q8-30 4.5-57l45-7q3.5 39-5.5 78.5M1006 928.5l-59.5-4L945 880l67.5 4.5Zm-242-237-38-44 36-31 38 43Zm68-138-19-60 41-13 17.5 62ZM623.5 248l-14-69 43.5-9 12.5 70Zm137-83-32-32.5q11-12 18.25-25.25T757 80l42 7q-4.5 21.5-14.25 40.5T760.5 165M348 696l-28.5-28q29.5-31 44.5-62t15-62q0-15.5-3-35.5t-9-41Q354 423 354 390q0-35 16.75-64.5T415.5 278t60.5-18q39 0 65 25.75t26 64.75q0 39.5-28.25 63.25T463.5 437.5q-43.5 0-79-21t-56.25-57T307.5 279q0-71.5 52-118.75T502 107.5l2.5 40q-74 4.5-115.5 40T347.5 279q0 33.5 15 60.25t41.25 42.5 59.75 15.75q29.5 0 46.5-12.25t17-34.75q0-22-14.25-36.25T476 300q-32 0-57 27.25T394 390q0 11 2.75 26.75T406 458.5q6 24 9.5 46T419 544q0 77-71 152m109 15.5q0-60.5 33-94.75t107.5-54.25q44-11.5 57.5-20.75T668.5 514q0-9-2.5-17t-11-23.5q-20-36.5-20-66 0-39 24.25-63t62.25-24q22 0 44.25 9.25T819 362q28 20.5 45.5 28.25T898 398q28 0 40.5-20t12.5-61q0-40-13.25-76.5T894 162l32-24q34 47 49.5 90.25T991 317q0 58-24.25 89.5T898 438q-23 0-46.5-10t-56-33.5Q768 374 752.25 367.25t-30.75-6.75q-22 0-34.25 11.75T675 407.5q0 9.5 3.25 19.75t12.25 27.25q10 18.5 14 31.75t4 27.75q0 33-22.25 52.75T607.5 601q-63.5 16.5-87 39.75T497 711.5ZM802.5 870q-25.5 0-48.5-12t-55-39.5q-24.5-22-37.75-29.25T635 782q-8 0-16.75 2.75T593.5 796q-30 15.5-54.25 21.5t-51.25 6q-12.5 0-27-1.5t-31-5l8-39.5q29.5 6 52 6 22 0 41.25-5.5T576 760q20-10 33.25-14t25.75-4q20 0 40.25 10.5t49.75 36q28 24 44.5 32.75t33 8.75q23.5 0 35-17.25T861 743q19-81.5 53.75-116.75T1015 591v40q-34.5 0-56 10.75t-34.75 37T900 752q-15.5 66.5-37.5 92.25t-60 25.75"/></svg>