<svg xmlns="http://www.w3.org/2000/svg" viewBox="-68 80 1160 1040"><path d="M94 960.5q-74.5 0-118.25-18.5T-68 892.5q0-17.5 18.25-38.75t42-43T34 770.5 52 740q0-6-6.5-12.25a343 343 0 0 1-13.25-13.5Q25.5 707 25.5 699q0-13 10-30.75t23-37.25 23-37 10-29.5q0-11.5-10.75-23.25T70 516q0-12.5 11.75-23.25A5805 5805 0 0 1 109 468q15.5-14 26.5-35.5l9-17.5q44-85 108.5-127.5T403.5 245q53.5 0 100.25 25.5T586 341t55.5 104 20 126q0 52.5-9.25 99t-26.75 75.5-42.5 29q-20 0-35-12-22.5 21.5-37.5 41T486 839q-15.5 26.5-30.25 44.75T427 911.25t-28.5 9.25q-17 0-36.25-6.25T327 901q-70.5 33-122.5 46.25T94 960.5M360 787q-16-34-25.25-78.25T322.5 621q-37 24-78.75 43t-87.25 28l-6.5-39q53-10.5 106-38.25T354.5 550q0 28 4 67.25t13 79.5T395 768ZM94 920.5q39 0 72.25-5.5t71-19.5T327 857q49 23.5 71.5 23.5 8.5 0 22-17.75T454 815q17.5-26.5 42.25-56t56.25-58q5.5 15 14 24.25t16.5 9.25q9 0 18-24.75t14.75-62.5T621.5 571q0-59-17-110.75t-47-91.25-69.5-61.75T403.5 285q-147.5 0-223 148l-11 21.5q-12 23.5-25.25 33.25t-22.25 15-9 14.75q0 12.5 9.25 23.25t9.25 23.75q0 10-10 28.5t-23 39.5-23 38.25-10 24.25q0 9 13.25 20.75T92 740q0 16.5-18 38.25T32.25 822.5t-42 41.25T-28 892.5q0 6.5 18.25 13t46.5 10.75T94 920.5m408.5-294Q465 591.5 441 540t-32-100.5Q365 467 315.25 488t-92.75 29.5l-10-38.5q37-7.5 80.5-24.5t80.75-36.5T430 384q0 15.5 6.75 42.25t19.75 58T488 545.5t41.5 52ZM150.5 856l-27-29.5q61.5-51 109-113.25t84.25-131T383 443.5t55-136q26.5-68.5 52.5-127.25T545 80l33 23q-27 39-54 95t-54 123.5q-16.5 41.5-33.75 86.75A8840 8840 0 0 0 401.5 501q-36 96.5-100.25 189.75T150.5 856m878.5 224h15.5c-11-16-20.17-31.58-27.5-46.75s-12.75-30.42-16.25-45.75q-5.25-23-5.25-47 0-17 2.25-36.5t4.5-39.5 2.25-37.5q0-46-18.75-82.25t-51-57.5T862 666q-36.5 0-65.5 18t-45.75 49.5-16.75 72q0 42 16 78l67.5 2-31 64.5q23 37.5 61.5 66.75c25.667 19.5 54.167 34.92 85.5 46.25s63.167 17 95.5 17m9.5 40q-63 0-122.25-21.75c-39.5-14.5-74.667-34.58-105.5-60.25s-54.25-55.167-70.25-88.5l16-29.5-32 1q-14-22-22.25-53T694 805.5q0-51.5 22-92t60-64 86-23.5q51.5 0 92.75 26.5c27.5 17.667 49.33 41.667 65.5 72S1044.5 789 1044.5 827q0 30-4.5 59.75t-4.5 53.75c0 22.667 2.83 41.75 8.5 57.25s12.25 28.5 19.75 39 14.08 19.58 19.75 27.25 8.5 15.33 8.5 23c0 11.33-5.25 19.67-15.75 25s-23.08 8-37.75 8m-232-285.5L781 814q17.5-22 34.75-37.5t49.25-39q23 7.5 37.25 13.25t25.25 11.75 24.5 15l-17.5 29q-15-10.5-29.5-18.25t-37-15.75q-18.5 14.5-32 28.25t-29.5 33.75m85 86.5q-33-78-45.5-173t-12.5-194H871q0 112.5 13.75 200.5t41.25 153Zm67-533q-21-22.5-53.75-47.75T835 291.5t-72.25-41.25T701 225.5l10-28q28.5 7 65.25 24.5t75 41.5 72.5 50.5T982 365.5Zm122 128q-37.005-9.5-54.75-13.25c-11.83-2.5-25.42-4.917-40.75-7.25l-52.5-9q-81-14-126.75-54.75T760 330q0-40 18.25-72t49.5-50.75T897 188.5q38.5 0 73.5 22.25c23.333 14.833 44.08 34.917 62.25 60.25s32.58 54.083 43.25 86.25 16 65.583 16 100.25c0 10.667-.83 20.167-2.5 28.5q-2.505 12.5-9 30m-29-48.5q0-14.5-1.5-28.5c-2.33-28.667-8.25-55.667-17.75-81s-21.33-47.667-35.5-67q-21.25-29-47-45.75T897 228.5q-41 0-69 29.25T800 330q0 45.5 36 76.5t102.5 41l52.5 8c9.67 1.333 19 2.917 28 4.75s19.83 4.25 32.5 7.25m-173.5-92q-3.5-18.5-4.5-34.5t-1-51.5q24.5-5.5 43.75-7.75T954 279.5v30q-9.5 0-24.25.75T902.5 313q0 33.5 4.5 55.5Z"/></svg>