<svg xmlns="http://www.w3.org/2000/svg" viewBox="-33 80 1090 1040"><path d="M127 1120v-78.5H40c-21 0-38.417-6.92-52.25-20.75S-33 989.667-33 969V712.5q0-31.5 21.25-52.25T41.5 639.5h127v-97q0-31 21-52t52-21h541q31 0 52 21t21 52v97h127c21.67 0 39.5 6.917 53.5 20.75q21 20.75 21 52.25V969c0 20.667-6.92 37.92-20.75 51.75S1005 1041.5 984 1041.5h-87v78.5H784v-78.5H240v78.5Zm-12.5-325 54-65v-50.5h-62q8 15 8 33Zm0 114.5H492v-68H114.5Zm46.5-108h331V759H196.5Zm-121 200h944q15 0 24-9t9-23.5V712.5c0-10.333-3.08-18.417-9.25-24.25s-14.583-8.75-25.25-8.75q-15 0-24 9t-9 24v237h-875v-237q0-15-9-24t-24-9q-15.5 0-25 8.75T7 712.5V969q0 14.5 9 23.5t24 9M208.5 719H492V509.5H241.5q-15 0-24 9t-9 24ZM532 909.5h377.5v-68H532Zm0-108h331L827.5 759H532Zm0-82.5h283.5V542.5q0-15-9-24t-24-9H532Zm377.5 76v-82.5q0-18 8-33h-62V730Zm-235-307V253h37v235ZM693 366.5q-48 0-84.75-6t-57.75-21-21-41.5 20.75-41.5 57.75-21 85-6q48.5 0 85.25 6t57.5 21T856.5 298t-20.75 41.5-57.75 21-85 6m0-34q64.5 0 96-8.5t31.5-26-31.25-26-96.25-8.5-96.25 8.5-31.25 26 31.5 26 96 8.5m-162.5-41 33.5-154q6.5-29.5 39-43.5t90-14 90 14 39 43.5l33.5 154L812 265l-26.5-120q-3-13.5-26.25-20.75T693 117t-66.25 7.25T600.5 145l-26 118.5Z"/></svg>