<svg xmlns="http://www.w3.org/2000/svg" viewBox="27 80 970 1040"><path d="M371 1120q-69 0-131-36c-41.333-24-78-56.92-110-98.75Q82 922.5 54.5 841.5T27 670q0-103.5 37-181.25t102-121 148.5-43.25q46 0 94.5 14.25t103 43.75q54.5-29.5 103-43.75t94.5-14.25q84 0 148.75 43.25t101.75 121T997 670q0 90.5-27.5 171.5T894 985.25c-32 41.83-68.667 74.75-110 98.75q-62 36-131 36-38 0-74.75-11.25c-24.5-7.5-46.583-17.92-66.25-31.25-19.667 13.33-41.75 23.75-66.25 31.25Q409 1120 371 1120m121.5-619q0-75-4-126.25t-13-87T451 223.5l35-17.5q17 31.5 26.75 70.25t14.25 93T531.5 501Zm2.5-189q23.5-120.5 94.5-176.25T790 80q-22.5 120.5-93 176.25T495 312"/></svg>