<svg xmlns="http://www.w3.org/2000/svg" viewBox="50 80 924 1040"><path d="M755.5 1120c-37.333 0-75.583-6.17-114.75-18.5s-80.583-24-124.25-35q-41.5-10.5-77.25-18A714 714 0 0 1 369 1030c-23-7.33-47.5-18.17-73.5-32.5q-102.5-57-156-146T86 658.5V614h40v44.5q0 95 49.75 173.25T311.5 960.5q37 21.5 74 32.75T460 1012t75.5 18c24.667 6.67 50.833 14 78.5 22s54.083 14.83 79.25 20.5 45.917 8.5 62.25 8.5c56 0 99.75-15.58 131.25-46.75S934 960.333 934 906q0-30.5-6.75-64.75t-14-66.25-9.75-55q-2.5-27.5-1.25-46.5t3.75-40.25 2.5-54.25q0-98.5-46-176.5t-128-125.75-190-54.25l2.5-40q87 5.5 160.5 36.75t127.5 84T918.75 426t29.75 153q0 40.5-4.25 70t-.75 67.5q4 43 17.25 90.5T974 906q0 98.5-59.25 156.25T755.5 1120m-450-269.5q-15.5 0-31.5-14.5t-16-28q0-8.5 6-14t14.5-5.5q15.5 0 31.5 14.5t16 28q0 8-6 13.75t-14.5 5.75m150 65q-15.5 0-31.5-14.5t-16-28q0-8.5 6-14t14.5-5.5q15.5 0 31.5 14.5t16 28q0 8-6 13.75t-14.5 5.75M686 978q-18 0-28.25-6.25T647.5 954.5t10.25-17.25T686 931t28.25 6.25 10.25 17.25-10.25 17.25T686 978M480.5 735.5q-15.5 0-31.5-14.5t-16-28q0-8.5 6-14t14.5-5.5q15.5 0 31.5 14.5t16 28q0 8-6 13.75t-14.5 5.75m183 67.5q-13.5 0-28.5-16.25t-15-31.25q0-8.5 5.75-14t13.75-5.5q13.5 0 28.5 16.25t15 31.25q0 8-5.5 13.75t-14 5.75m-396-65q-6 0-17.75-10.75t-24.25-28a223 223 0 0 1-21.5-36.5q-9-19.25-9-36.25v-30q-6 7.5-13.75 15.75T165 625.5q-12.5 7.5-28 12.25t-36 14.75q-13.5 6.5-21 14.25t-14.5 7.75q-11 0-13.25-13.25T50 635.5q0-46.5 17-101.75t46.75-110.25T181 324q-33.5-32.5-50.75-72.25T113 168.5q0-19 2-36.75t3-22.25q1-4 9.75-11t20-12.75T167.5 80q11.5 0 14 2.5t3 6.5q1 9.5 0 25.75t-1 33.25q0 38.5 16.5 70t50.5 39.5q59.5-48 127.75-73.75T519 158q26.5 0 54 2t46.5 7.25 19 14.75-13.75 25.5-33.75 33-40.25 30.5T517 290q11.5 3.5 32.25 16.5t42.5 30 36.75 32.25 15 23.75q0 14.5-18 25.75t-45.75 17.5T523 442q-8 0-15.5-.5t-14.5-2q10.5 23 17.25 59.75T517 566.5q0 12.5-1 22.75t-6 14.25q-12 9-36 9-23 0-50.25-6.5t-50.5-15.25T339 574.5q0 42.5-13.5 79.75t-30.25 60.5T267.5 738m556 113.5q-12 0-22.75-15.75T790 801.5q0-10.5 5.75-17.25t13.75-6.75q12 0 22.75 15.75T843 827.5q0 10.5-5.5 17.25t-14 6.75M642.5 590q-12.5 0-26.25-16.75T602.5 540q0-9.5 5.5-15.25t13.5-5.75q13 0 26.5 16.75T661.5 569q0 9.5-5.25 15.25T642.5 590m163 27q-11.5 0-20-13.75T777 570.5q0-13 6-20.75t15.5-7.75q11.5 0 20 13.75t8.5 32.75q0 13-5.75 20.75T805.5 617M729 403q-14 0-28.75-15.75T685.5 356q0-8.5 5.75-14.25T705 336q14 0 28.75 15.75T748.5 383q0 8-5.5 14t-14 6"/></svg>