<svg xmlns="http://www.w3.org/2000/svg" viewBox="-8 80 1040 1040"><path d="M487 1120c-100.333 0-182.75-3.92-247.25-11.75Q143 1096.505 89 1067c-36-19.67-61.167-47.33-75.5-83Q-8 930.5-8 847.5q0-90 19.75-181.5t55.5-177.5 83.75-160 105.5-129.75T377 111.5 505 80q22 0 41.75 10.25t29.75 27.25l55 92.5q13.5 23.5 13.5 49 0 38-32.25 54.75T521 330.5q-56 0-86.25-19.5t-30.25-50q0-29 21.75-43.75T480 202.5q7 0 14.25.75T509.5 205l-5 40q-7.5-1.5-13.5-2t-11-.5q-20 0-27.75 5.5t-7.75 12.5q0 13.5 19.75 21.75T521 290.5q44.5 0 64.25-7.25T605 259q0-8.5-2.25-15.5T596.5 230L546 144.5q-6-10.5-17.75-17.5T505 120q-58.5 0-116.25 30T278 233.25 180.25 357t-78 152T50.5 676.75 32 847.5q0 72.5 18.75 118c12.5 30.333 35 53.83 67.5 70.5q48.75 25.005 138 34.5c59.5 6.33 136.417 9.5 230.75 9.5h153.5c79.667 0 145.5-8.33 197.5-25s90.667-42.25 116-76.75q38-51.75 38-130.75 0-52.5-22-96.5t-61-76-90.5-49.5T708 608q-53 0-106.25 19.75t-97.75 54T432 760q-12.5-1-23.75-1.75t-20.75-.75q-55.5 0-88.75 34.5t-33.25 88.5q0 16.5 2 33.5t7 41l-39 8q-5.5-25.5-7.75-44.75t-2.25-37.75q0-47 20.5-83.75t57-58 84.5-21.25h11q6 0 15 .5 38-45.5 82.75-79.25T594 586.5 708 568q67.5 0 126.25 20.5t103.25 58T1007 735c16.67 34 25 71.5 25 112.5 0 61-14.58 111.667-43.75 152-29.167 40.33-72.75 70.5-130.75 90.5q-87 30-217 30Zm186-105c-43.667 0-83.583-7.67-119.75-23q-54.25-23-89-63.75T421.5 834.5l40-5Q468 872 497 905t74.75 51.5T673 975q42.5 0 80.75-11.75t66-32T859 886l37.5 13.5Q882.5 933 849 959t-79.25 41-96.75 15M277 766q10-25.5 16.75-64.25t6.75-72.25q0-15-1.5-27.5-2-20-3-36.5t-1-31q0-59.5 16-107.25T356 353l30.5 26q-24 20-37.75 61T335 534.5q0 13.5 1 29t3 34.5q1 7.5 1.25 15.5t.25 16q0 28-4.5 60.5t-12 60.5Zm189-366q-69.5 0-114.75-22.25T293 314.5l37-16q8.5 29 43.5 45.25T466 360q40 0 59-6.5t19-16.5q0-7.5-6-7.5V293q19 0 32.5 12t13.5 32q0 34-32.25 48.5T466 400"/></svg>