<svg xmlns="http://www.w3.org/2000/svg" viewBox="106 80 812 1040"><path d="M341 789.5q0-126-19-220.25t-59-163.5T159 286l33 8.5q-36 0-58.5-15T111 246q0-14 13.75-23.5T158 213q24 0 43.5 15.75T221 263.5l189.5 61q59 31.5 108 65.25t81 66.25q65.5 65 96.75 136.5t31.25 158L689 753q0-82.5-28.25-147.5T569.5 480q-60-57.5-147.5-106t-218.5-91l9-1q85 78.5 126.75 203.25T381 789.5Zm6.5 330.5q-66.5 0-121.5-32.25c-36.667-21.5-65.833-50.33-87.5-86.5Q106 947 106 881t32.5-120.25 87.5-86.5T347.5 642q50 0 93.75 18.5t77 51.5 52 76.25T589 881q0 66-32.5 120.25c-21.667 36.17-50.75 65-87.25 86.5Q414.5 1120 347.5 1120m0-40c37.333 0 71.167-8.92 101.5-26.75q45.5-26.745 72.75-72Q549 936 549 881t-27.25-100.25-72.75-72T347.5 682q-55.5 0-101.25 26.75t-73 72T146 881t27.25 100.25q27.25 45.255 73 72c30.5 17.83 64.25 26.75 101.25 26.75M366 826.5q-28.5 0-54.75-11.25T266.5 781.5L296 756q13.5 16 31 24t37.5 8q10 0 26-3.25T421 775l18 33q-17 9.5-35.5 14t-37.5 4.5M688 1070c-32.667 0-63.417-6.42-92.25-19.25S542 1020.33 521 998l27-29.5q26.5 28.5 62.5 45T688 1030c35 0 66.833-8.58 95.5-25.75q43-25.75 68.75-69T878 839.5t-25.75-96.25-68.75-69.75-95.5-26q-54.5 0-99.5 28.25T519 748.5l-33-20q29.5-53.5 83.25-86.25T688 609.5q63.5 0 115.75 31T887 723.75t31 115.75-31 115.75c-20.667 34.833-48.417 62.67-83.25 83.5S730.333 1070 688 1070m31.5-285.5q-32.5 0-61.75-14T611 730l30.5-23.5q14.5 20 34.5 29.5t42.5 9.5q24.5 0 49.5-9.5l15 34.5q-30 14-63.5 14M435.5 292q87.5 0 167.25-38.25T755 139l7.5 17.5q-69.5-19-123.75-27.75T535.5 120q-105.5 0-187.75 35.25T211.5 257l-7-17q63 26 120 39t111 13m0 39q-59 0-123.5-15.25T178.5 270l-9-23.5q57-81.5 150.75-124T535.5 80q52 0 115 10.25T811 127q-61.5 72.5-120.25 117.5t-121 65.75T435.5 331"/></svg>