<svg xmlns="http://www.w3.org/2000/svg" viewBox="-72 180 1168 840"><path d="M703.5 1020q-104 0-180-70-52 24.5-114 24.5-50 0-95.5-16.75t-77-47.25q-42 14-87.5 14-61 0-111.5-23.25t-80.25-62.75T-72 751q0-45 25.5-82.5t67-61.5 89.5-28q3-52.5 30.5-95t71.5-67.75T309 391q8.5 0 17.25.75T343 394q22-64 66.25-112t104-75 127.25-27q64.5 0 121.25 24.25t99.75 67.25 67.25 99.75T953 492.5q0 17.5-1.75 35a266 266 0 0 1-5.75 34.5q43 7.5 77 33.25c22.67 17.167 40.58 38.417 53.75 63.75s19.75 53 19.75 83q0 50-24.75 91.5t-66 66.25-91.75 24.75h-6Q870 970 816.5 995c-35.667 16.67-73.333 25-113 25m0-40q56 0 105-25.5t81-71.5q8 1 13 1.25t11 .25q39.5 0 71.75-19.25c21.5-12.833 38.67-30.083 51.5-51.75S1056 768 1056 742c0-28.667-7.42-54.333-22.25-77s-34.083-40.583-57.75-53.75q-35.5-19.75-75.5-19.75 4.5-19 8.5-44.75t4-54.25q0-56.5-21.25-105.75T833 300t-86.75-58.75T640.5 220Q582 220 530 243.25T439.25 308t-57.75 96.5q56 22 91.5 71.75t35.5 109.25h-40q0-41.5-21.5-76.75t-57.75-56.5T309 431t-80.25 21.5T171 510.25t-21.5 80.25V616q-55.5 4-96.25 23.25t-63 48.5T-32 751q0 36.5 24.5 66.75t65.75 48.5 91.25 18.25q53.5 0 99-22 24.5 33.5 67.25 52.75t93.75 19.25q70 0 121-34.5 69 80 173 80"/></svg>