<svg xmlns="http://www.w3.org/2000/svg" viewBox="97 80 830 1040"><path d="M512 1120q-54.5 0-107.75-9.75c-35.5-6.5-68.083-15.33-97.75-26.5s-54.167-23.83-73.5-38-31-28.75-35-43.75l-80.5-309.5q-9-16.5-14.75-37.5T97 615.5q0-32.5 18.25-61.5t50.25-50.5l21 34Q137 572 137 615.5q0 14 4.75 30.75T153 675.5q23.5 4.5 50 16.25t49.75 27.75T290.5 753q22-18.5 49-27.25t57-8.75q35.5 0 66.75 16.75T512 765q17.5-14.5 48.75-31.25T627.5 717q30 0 57.25 8.75T733.5 753q14.5-17.5 38-33.5t49.75-27.75T871 675.5q7-12.5 11.5-29.25t4.5-30.75q0-43.5-49.5-78l21-34Q891 525 909 554t18 61.5q0 18.5-5.75 39.5t-14.75 37.5L826 1002c-4 15-15.667 29.58-35 43.75s-43.833 26.83-73.5 38-62.25 20-97.75 26.5Q566.5 1120 512 1120m0-40c6.667 0 13.333-.17 20-.5s13.333-.67 20-1l8.5-166.5q.5-9.5 6-14.25T580 893t14.25 5.5 5.25 17l-8.5 158a657 657 0 0 0 84.5-18.5l25-173.5q1.5-9.5 7-13.25t12-3.75q8 0 14.5 5.75t4.5 19.25L717 1041c19.667-7.67 35.833-15.83 48.5-24.5s20-16.833 22-24.5l72-273.5q-32 9-66 30.25t-62 48.25q-18-18-44-29t-60-11q-18 0-38.75 6.75T548 782.5t-36 28q-16-16-36-28t-40.75-18.75T396.5 757q-34 0-60 11t-44 29q-28-27-62-48.25t-66-30.25l72 273.5c2 7.667 9.5 15.83 22.5 24.5s29.333 16.83 49 24.5l-22-151.5q-2-13.5 4.5-19.25t14.5-5.75q7 0 12.25 3.75T324 881.5l25 173.5c13.333 4 27.083 7.58 41.25 10.75a519 519 0 0 0 43.25 7.75l-8.5-158q-.5-11.5 5.5-17t14-5.5 13.5 4.75 6 14.25l8.5 166.5c6.667.33 13.333.67 20 1s13.167.5 19.5.5M307.5 516.5q-12.5 0-21-8.5t-8.5-21q0-12 8.5-20.5t21-8.5q12 0 20.5 8.5t8.5 20.5q0 12.5-8.5 21t-20.5 8.5m127 7.5-33-28q-4.5-4-5.5-10.25t3.5-11.25q10-12 22-2l33 28q5 4 5.75 10.25T456.5 522q-10.5 11.5-22 2m-41-152.5q-13 7-21-6L351 328q-3-5.5-2-11.5t7-9q14.5-7 21.5 5.5l21.5 37.5q7.5 14-5.5 21M511 440q-13 7-21-6l-21.5-37.5q-3-5.5-2-11.25t7-9.25q13-7.5 21.5 5.5l21.5 37.5q3 5.5 1.75 11.5T511 440m58.5 94.5q-5.5-3.5-7-9.75t1.5-11.25l22-38q2.5-5 8.75-6.75T606.5 470q6 3.5 7.25 9.75T612 491.5L590 529q-7.5 13.5-20.5 5.5M512 604q170.5 0 250.25-30.75T842 483q0-37-26.75-71.25T745.5 360q0-49.5-29.25-94.25t-84.5-81T498.5 124.5q-5 32-29 52.25T402 211.5q-58.5 19-91.25 57.25T278 356q0 6.5 1 17.75t4 26.25q-54 26.5-79.75 52t-25.75 51.5q0 30 38.5 52.75t113.25 35.25T512 604m0 39q-182 0-278.25-35.75T137.5 503.5q0-30.5 16.5-54.25t40.25-41.5T239.5 378q-1.5-11.5-1.5-22 0-62.5 40.5-111T390 173.5q41.5-13 58.5-29.25t17-43.75q0-8.5-2-20.5 65.5 11 122.25 36t100 60 68.5 76T781 336q46 21 73.5 61.75T882 483q0 81-91 120.5T512 643m-5.5-350.5q-12.5 0-21-8.5t-8.5-21q0-12 8.5-20.5t21-8.5q12 0 20.5 8.5t8.5 20.5q0 12.5-8.5 21t-20.5 8.5m195 186q-12.5 0-21-8.5t-8.5-21q0-12 8.5-20.5t21-8.5q12 0 20.5 8.5t8.5 20.5q0 12.5-8.5 21t-20.5 8.5M608 347q-5.5-3.5-7.25-9.75t1.75-11.75l22-37q7.5-13.5 21-5.5 5.5 3.5 6.75 9.5T650.5 304L629 341q-8 13.5-21 6"/></svg>