<svg xmlns="http://www.w3.org/2000/svg" viewBox="113 80 798 1040"><path d="M503 821.5q-125 0-212.75-16.75T141 756.5q-7.5-24.5-13.75-48T117 661.75t-4-46.25q0-51 25-104.25T202.5 422q-38-19-38-49 0-32.5 43.25-56.25T327.5 280 503 267q85.5 0 155 10.5l-62.5 48q-26.5-2-48.75-2.75T503 322q-113 0-173.5 25.25T269 421q0 16.5 7 29t14.25 30.25 7.25 50.25q0 16.5-7 48.5t-7 67.5q0 47.5 16.5 79.25t41 31.75q23.5 0 38.25-21.5T394 680q0-31-5.75-68.75a14741 14741 0 0 0-11.5-74.25Q371 500.5 371 473.5q0-28.5 11.25-43T416 416q26.5 0 59 9.5t84 9.5q38 0 70-9l117.5-129q47.5 14 71.25 32.5T841.5 373q0 30-38 49 39.5 36 64.5 89.25t25 104.25q0 23-4 46.25t-10.25 46.75a1346 1346 0 0 1-13.75 48q-61.5 31.5-149 48.25T503 821.5m0 158.5q-100 0-172.75-14.5t-121.75-40A1011 1011 0 0 1 188 883a1165 1165 0 0 1-19.5-45.5q76 28 160 42.25T503 894q91 0 174.75-14.25T837.5 837.5q-9.5 24-19.5 45.5t-20.5 42.5Q749 951 676 965.5T503 980m0 140q-75 0-132-13.5c-38-9-63.333-19.67-76-32-4-4-9.25-10.42-15.75-19.25s-13.75-19.92-21.75-33.25q-30.5-51-57-105.5t-46-108.25-30.5-103T113 616h42q0 43 13 97t35.5 111.5 51 112c19 36.333 38.833 69.17 59.5 98.5 28.333 6.33 59.083 11.25 92.25 14.75Q456 1055 503 1055q47.5 0 97.25-5.25c33.167-3.5 63.75-8.42 91.75-14.75 20.667-29.33 40.5-62.167 59.5-98.5q28.5-54.5 51-112T838 713t13-97h42q0 40-11 89.25t-30.5 103-45.75 108.25T748.5 1022c-8 13.33-15.25 24.42-21.75 33.25S715 1070.5 711 1074.5c-12.333 12.33-37.583 23-75.75 32Q578 1120 503 1120m-22-642-26-30 254-255q0-28 11-53.75t29.5-42.5T790 80q14.5 0 28.25 5.25t28.25 19.25L883 140q28 27 28 58.5 0 21-16.75 40t-42.75 30.75-55 11.75L630 449.5l-49.5-8L783 240q4 1 8.5 1.25t8.5.25q17.5 0 34.5-7.5t28.25-18.75T874 193.5t-15.5-26l-37.5-37q-15-15-24-15-10 0-21.5 11T756 154.25t-8 34.25q0 11.5 2 20Z"/></svg>