<svg xmlns="http://www.w3.org/2000/svg" viewBox="79 80 866 1040"><path d="M512 1120c-86.333 0-154.583-7.33-204.75-22Q232 1075.995 199 1041c-22-23.33-33.667-48.167-35-74.5l-3-59.5q-.5-12.5-2-31.25T156 845L79 197.5q0-24.5 31.5-45.75t89.25-37.5T337 89t175-9 175 9 137.25 25.25 89.25 37.5T945 197.5L868 845q-1.5 12-2.75 30.75T863 907l-3 59.5c-1.333 26.333-13 51.17-35 74.5q-33 34.995-108.25 57c-50.167 14.67-118.417 22-204.75 22m0-124q-117.5 0-181.5-23.5t-69-62l-20-162.5q45 26 115 38T512 798t155.5-12 115-38l-20 162.5q-5 38.5-69 62T512 996M350.5 682q19-9.5 48.25-16.75T464.5 656q18-1 18-18 0-8-5.25-12.75T463.5 621q-42.5 2-76 10.25T332 653q-7.5 4.5-7.25 12.25T330.5 680q7 8.5 20 2M512 1081c98 0 173.417-10.58 226.25-31.75s80.083-49.417 81.75-84.75l3-59.5q1-13 2.5-32.75t3-32.25l70-586.5Q847 282 746 298.75T512 315.5t-233.75-16.75T125.5 253.5l70 586.5q1.5 12.5 3.25 32.25T201 905l3 59.5c1.667 35.333 28.917 63.58 81.75 84.75S414 1081 512 1081m0-322.5q-80 0-143-11t-99.5-30.25T233 673.5q0-26.5 38.75-49.5t102.5-37.25T512 572.5t137.5 14.25T752 624t39 49.5q0 24.5-36.75 43.75T654.5 747.5t-142.5 11m0-482q78 0 148.5-7.5t125.25-19.5 86-25.75T903 197.5q0-12-32-25.5t-87.25-25.5-125.5-19.75T512 119t-146.25 7.75-125.5 19.75T153 172t-32 25.5q0 12.5 31.25 26.25t86 25.75T363.5 269t148.5 7.5"/></svg>