<svg xmlns="http://www.w3.org/2000/svg" viewBox="-40 80 1105 1040"><path d="M632.5 1120c-13.333 0-28.667-1.08-46-3.25q-26-3.255-57.5-8.25L221.5 1061c-7.333-1.33-14.667-3.42-22-6.25q-11-4.245-22.5-9.75L71.5 993l-91-193.5q-7.5-16-14.25-34.25t-6.75-36.75q0-29.5 11.5-60t43-83L95.5 450q10-16 25-32t33-27L307 294.5 454 138q17.5-19 45-25.5L598.5 89a637 637 0 0 1 28.75-6.25Q641.5 80 652.5 80q37 0 60.5 36.5l309 469c14.67 22.333 25.75 50.25 33.25 83.75s10.42 68.583 8.75 105.25l-5 110.5c-1 23.667-10.58 46.75-28.75 69.25S989.5 993.333 962.5 1004l-249 100q-20 7.995-40.25 12c-13.5 2.67-27.083 4-40.75 4m-227-50V795.5L135 650l19-35 291.5 156.5V1070Zm256-201.5L527 732.5l28-28 134.5 136Zm-29 211.5c22.667 0 44.667-4.33 66-13l249-100q30-12 50.25-36c13.5-16 20.58-32 21.25-48l5-110.5q1.5-33-2.25-63.5t-12-56.5-20.75-45l-309-469q-7.5-11.5-13-15t-14.5-3.5q-6 0-15.5 1.75T607.5 128L508 151.5q-8 2-13.75 5T483 165L333 325.5 174.5 425q-14.5 9-26 20.5t-19 24.5L48 606.5Q19 655 9.25 679.75T-.5 728.5q0 9.5 3.75 21.75T16.5 782.5l85 180.5 93.5 46q13 6.495 20.5 9c5 1.67 9.167 2.83 12.5 3.5l307 47.5c21 3.33 39.583 6 55.75 8q24.25 3 41.75 3m48.5 17.5-38-13 69-194L1035.5 676l22 33L745 916.5Zm-157-437-39-9L549.5 373l-12-186 40-3 12 192Zm-185-372 127.5-147 185.5-39-93.5 128Z"/></svg>