<svg xmlns="http://www.w3.org/2000/svg" viewBox="7 105 1010 990"><path d="M106 1095q-41.5 0-70-28.5c-9.333-9.33-16.5-19.92-21.5-31.75S7 1010.33 7 997q0-40.5 35-74l332.5-323L42 277Q7 243 7 203q0-20.5 7.5-38T36 133.5Q64.5 105 106 105q39 0 76.5 36L512 460.5 841.5 141q37.5-36 76.5-36 40 0 70 28.5 14 13.5 21.5 31t7.5 38.5c0 26.667-11.67 51.333-35 74L649.5 600 982 923c23.33 22.667 35 47.333 35 74 0 13.67-2.42 26.42-7.25 38.25s-12.083 22.25-21.75 31.25q-30 28.5-70 28.5-39 0-76.5-36L512 739.5 182.5 1059q-37.5 36-76.5 36"/></svg>