<svg xmlns="http://www.w3.org/2000/svg" viewBox="18 105 988 990"><path d="M87.5 1095q-35.5 0-52.5-16.5c-11.333-11-17-25.33-17-43 0-23.33 8.75-54.417 26.25-93.25q26.25-58.25 75-132t116.5-155.5T386 490.5Q480.5 396 565 324t156.75-120.75 130-73.5T950.5 105q30.5 0 43 13c8.33 8.667 12.5 20.5 12.5 35.5q0 32.5-24.5 87t-69 124.25T807.75 512.5 676 670a4615 4615 0 0 1-117.75 125.25Q498 857 436.75 911.25t-121.5 95.5c-40.167 27.5-79.417 49.08-117.75 64.75s-75 23.5-110 23.5m-11-199q52.5-74.5 122.75-115.25T346.5 740q28 0 46.5 5.75T411.5 761q0 19-43.25 43t-119 48.25T76.5 896M286 631.5q35.5-47 83.75-79.75t102-50T577 484.5q28 0 46.5 5.75T642 505.5q0 17-43.5 37.25T475 585.25 286 631.5M86 1057c34.667 0 70.667-8.08 108-24.25s75.333-38.167 114-66Q366 925 424 871.5t114-112.25T646.5 643q67-73.5 124.75-148T873 353.25 941.5 234t24.5-80.5q0-4-2.5-6.25T956 145q-54.5 0-134 42.25T640.25 312.5 414 519q-72.5 72-137 148.5T163.25 815 86 941.75c-18.667 37.167-28 65.92-28 86.25 0 9.33 2.167 16.5 6.5 21.5Q71 1057 86 1057m437-665q64-70 128.25-104T785 254q28 0 46.5 5.75T850 275q0 26-79.75 53.75T523 392"/></svg>