<svg xmlns="http://www.w3.org/2000/svg" viewBox="-87 80 1199 1040"><path d="M517.5 980q-74 0-138.75-27.75t-114-77-77-114T160 622.5t27.75-138.75 77-114 114-77T517.5 265t138.75 27.75 114 77 77 114T875 622.5t-27.75 138.75-77 114-114 77T517.5 980M4 1120c-24.333 0-40.667-4.42-49-13.25q-12.5-13.245-12.5-32.25 0-37.995 4.75-87.75Q-48 937-42 881.25t10.75-111.75 4.75-107q0-30.5-2.25-57.5t-7.75-48.5H45Q40 578 37.5 605T35 662.5q0 51 4.75 107A4970 4970 0 0 0 50.5 881.25q6 55.75 10.75 105.5Q66 1036.505 66 1074.5q0 19.005-12.5 32.25C45.167 1115.58 28.667 1120 4 1120m1-542.5q-43.5 0-67.75-28.5T-87 470q0-31 1.5-70.25t4.75-90.5 8.25-118.75h29L-53 432q-.5 9.5 4.75 15.25T-33.5 453t15.5-5.5 6-14.5l2-242.5h30L22 433q0 9 6 14.5t15.5 5.5 14.75-5.75T63 432l-9.5-241.5h29q5 67.5 8.25 118.75t4.75 90.5T97 470q0 50.5-24.25 79T5 577.5M517.5 940q66 0 123.5-24.75T742 847t68.25-101T835 622.5 810.25 499 742 398t-101-68.25T517.5 305 394 329.75 293 398t-68.25 101T200 622.5 224.75 746 293 847t101 68.25T517.5 940m-150-205q-8 5.5-15.5 4.25T339.5 730q-14-23.5-21.75-50.75T310 622.5q0-57.5 28-104.5t75.25-75 104.25-28q64.5 0 114 34 8.5 5.5 9.5 12.5t-5 15q-11.5 15-28.5 4.5-19.5-12.5-42.25-19.25T517.5 455q-46 0-84.25 22.5T372.5 538 350 622.5q0 23 6 44.5t16.5 40q9.5 17-5 28m681.5 385c-20.67 0-36.08-3.75-46.25-11.25-10.167-7.5-15.25-18.92-15.25-34.25 0-24 3.25-54.33 9.75-91q9.75-55 19.5-121t9.75-133c0-43.333-3.33-80.333-10-111q-34.5-18.5-49.75-46T951.5 502q0-81.5 9-157T985 209.75t35-94.75 40.5-35q16.005 0 16.5 27l12 475.5q1.5 67 3 120t3.75 105.25c1.5 34.833 3.42 73.333 5.75 115.5s5.5 92.58 9.5 151.25c1 15-3.75 26.33-14.25 34s-26.42 11.5-47.75 11.5"/></svg>