<svg xmlns="http://www.w3.org/2000/svg" viewBox="257 80 510 1040"><path d="M512 736.5q-74 0-131.5-33.25T290 611t-33-135.5q0-42.5 9.75-100t27-117.25T333 149.5q0-31 45.5-50.25T512 80t133.5 19.25T691 149.5q22.5 49 39.5 108.75t26.75 117.25 9.75 100q0 76.5-33 135.5t-90.5 92.25T512 736.5m0 383.5c-40.333 0-76.75-4.08-109.25-12.25q-48.75-12.255-77.25-36c-19-15.83-28.5-34.92-28.5-57.25q0-27 20-47t52.25-32.75 70-19T512 909.5q35.5 0 73 6.25t69.75 19T707 967.5t20 47c0 22.33-9.5 41.42-28.5 57.25q-28.5 23.745-77 36c-32.333 8.17-68.833 12.25-109.5 12.25m0-39q78.5 0 124.25-20.25c30.5-13.5 45.75-28.92 45.75-46.25 0-10.67-7.583-21.083-22.75-31.25Q636.5 968 598 958.25t-86-9.75-86 9.75-61.25 25c-15.167 10.167-22.75 20.58-22.75 31.25 0 17.33 15.25 32.75 45.75 46.25Q433.5 1081 512 1081m0-103.5q-30.5 0-52-8.5t-21.5-20.5q0-8 10.75-14.75T477 923V723h70v200q17 4 27.75 10.75t10.75 14.75q0 12-21.25 20.5T512 977.5m0-317.5q-53 0-93-22.75T356.75 575t-22.25-89.5q0-15 4.5-22.5t9-7.5q6 0 15.75 11t25 25.25T425.5 517t50.5 11q33.5 0 56.5-14.75T576 479t46-34.25T685.5 430q2.5 20 3.25 31.25t.75 24.25q0 50-22.25 89.5t-62 62.25T512 660m0 37.5q63.5 0 112-28.25t75.75-78.5T727 475.5q0-38.5-8-88.25t-22.25-101.5T664.5 190q-23.5 15.5-64 24t-88.5 8.5-88.5-8.5-64-24q-18 44-32 95.75t-22.25 101.5T297 475.5q0 65 27.25 115.25t75.75 78.5 112 28.25m0-514q36.5 0 66.75-6.25T627.5 163t18.5-13.5q0-7.5-36.75-19T512 119t-97.25 11.5-36.75 19q0 5.5 18.5 13.5t49.25 14.25T512 183.5"/></svg>