<svg xmlns="http://www.w3.org/2000/svg" viewBox="-8 80 1040 1040"><path d="M512.5 1120c-71.333 0-138.417-13.33-201.25-40q-94.25-40.005-166-111-71.75-71-112.5-165.5T-8 600q0-107 40.75-201.25t112.5-166 166-112.25T512.5 80t201 40.5 165.75 112.25 112.25 166T1032 600q0 109-40.5 203.5T879.25 969q-71.75 70.995-165.75 111c-62.667 26.67-129.667 40-201 40m35.5-46c15.667 0 32-1.33 49-4s31.5-6.5 43.5-11.5 18-10.83 18-17.5q0-4.005-2.5-7.5t-2.5-7.5c0-1.67.75-3.08 2.25-4.25s4.417-1.75 8.75-1.75c7.333 0 15.833.67 25.5 2 8.333-5.67 15.5-11.08 21.5-16.25s11.667-11.083 17-17.75q3-3.5 3-15 0-13 10.75-28.5T768.5 929q8.5 0 23-9.75T817 892.5q9-14 13-31.25T843.5 831q11.5-16 19.25-27.5t9.25-18a124 124 0 0 0 1.5-11q.5-5.5.5-20.5 0-14.5-16-23.5t-47.5-9q-18-16-44-16L762 689q-7.5-27-22.25-35T695 646q-17 0-25.25-10.25t-19-20.5T615 605q-32.5 0-45.25-5.5T549 594q-6.5 0-9 4.25t-9.5 4.25q-5.5 0-8.75-2.5t-7.25-2.5q-11 0-23.25 8.75T462 635.5q-4.5-5.5-11-11t-11.5-5.5h-29q-7 0-15.75-9.75T386 594q5.5-7 8.5-16t3-17.5q0-3-.75-7.5t-2.25-6.5Q389 538 375 538h-22.5q-3 0-5.75 1.75t-5.25 1.75q-3 0-3-4.5 0-3 2.5-5.75t6-9.25q2-3.5 3.5-8.25t3.5-8.25q4-7 7.75-12t3.75-7.5q0-3.5-3-6.5t-8-3q-2.5 0-8.75.5t-8.75.5q-7 0-12.75 2.5t-10.75 14q-4.5 10-15 13.75T278 511.5q-6 0-12.75-8.25T258.5 486q0-21 7-30.5t7-27.5q0-10 9.25-19.75t24.75-9.75q11.5 0 22.5.25t23.5.25q10.5 0 20.75-2.25t17.25-2.25q6 0 10.25 12.75A603 603 0 0 0 410 433q5 13 13 13 5.5 0 7.25-4.25t1.75-8.25q0-12-3.75-29.5t1.25-28q7-14.5 20.25-19.5a2172 2172 0 0 1 24.25-9q11-4 11-15.5 0-4-.75-5.25t-.75-4.75q0-4.5 7-11.75A137.6 137.6 0 0 1 505.25 297q7.75-6 10.25-6 17 0 20-5.25t3-19.25q6-4.5 16.5-10-.5 3-.5 6.5 0 9 9 9 3.5 0 8-4t12-8q8.5-4.5 16.5-9.75t8-8.75q0-5-13.75-6.75T573 233q-1.5 0-2.5-3.25t-1-9.25q0-2.5-.5-4.5t-2.5-2q-3.5 0-9.75 2.75t-10.25 2.75-4-3q0-5.5 16-10.25t35-4.75q11 0 15 2.25t4 9.75q-6.5 2-6.5 6 0 6.5 7.75 13.25T643 239.5q15.5 0 15.5-8.5 0-2.5-4.5-6.5T636 212q-3-2-9-11.75T600.5 177q-11.5-7.5-18.5-20.25t-4.5-27.25Q559 124 545.75 122t-32.25-2q-65 0-128 18t-117 49.75-92 72.25-52.5 85.5q2 36.5 6.5 51.5t4.5 22q0 14 4 26.75t12 12.75q10.5 0 10.5-9.5 0-4.5-3.5-8.75T154.5 428q0-13-2-24t-2-17q0-10.5 5-10.5 4.5 0 7.5 14.5t5 34.75 3 38.75 1 26.5q0 5 6.75 13.25t24.75 21.25 28.5 19.75 18 6.75q7 0 13-2.75t9.5-2.75q2.5 0 6.5 3t11 12.5q4.5 6 9.25 11.25t9.25 7.75q6.5 3 14.25 3t15.75 7q8.5 7.5 13.25 17.5T375 633q10.5 8 20.25 14.5t17.25 6.5q10.5 0 16.5-4t10.5-4q10.5 0 14.25 11.5t3.75 27q0 6-26 23.5-6.5 4.5-11.5 11.75t-5 16.75q0 4.5 3.5 7.25t3.5 5.75-4.5 5.25T413 769q0 11.5 10.25 23.5t14.25 22q7 17 14.75 27T471 859q26.5 18.5 34.75 25.75T514 897.5q0 8.5-1.5 26.25T511 969v33.5c0 32.33-4.667 53.67-14 64 4.333 1.33 11.583 2.92 21.75 4.75S538.667 1074 548 1074m-25-537.5q3.5 0 7.75-4t8.25-4q10.5 0 20-2.75t9.5-6.25q0-6.5-8-16.25t-19-9.75q-5 0-8.75 3.5t-8.25 3.5q-3.5 0-8.5-3t-8.5-3q-5 0-8.5 2.5t-6 2.5q-30.5-20.5-45.75-28T424.5 464q-25 0-34.75 2.25T380 471.5q0 7 8.25 14.75T407.5 494q26 0 42.75 8.75t26.75 17.5 16 8.75q3.5 0 7-.75t7-.75q3 0 6.25 4.5t9.75 4.5"/></svg>