<svg xmlns="http://www.w3.org/2000/svg" viewBox="167 80 690 1040"><path d="M396.5 1027c-11 0-16.5-2.67-16.5-8 0-4 2.167-8.92 6.5-14.75q6.5-8.75 12.75-24t6.25-39.75q0-18-2.75-38.5T400 862q0-4.5.25-9.25t.75-9.25q-9.5 12-21 29.5t-20 39l-7.5 19q-15.5 39-40 55t-42.5 16q-17.5 0-17.5-9 0-6 6.5-10.5t15-13.25 15-27 6.5-52.75q0-26.5 9.25-54t32.25-52q-50-31-80.75-80t-30.75-111q0-38 7-68.75t7-46.25q0-9-5.25-21.25T214.5 425L202 408.5Q182 382 174.5 355t-7.5-47.5q0-46 25.25-87.25t69.25-72.75T362.25 98 482.5 80q57 0 103 13.25t73.25 37T686 186q0 23.5-14.75 37.5t-36.5 22.25-43.75 15-36.75 16T539.5 302q0 19.5 21.5 33.5t63 17.5l-52.5 40q-76-29.5-134-63.5T347.25 259 315 186q0-5 .75-10a209 209 0 0 1 1.75-10l-38 11.5q-38 27.5-55.25 61.75T207 304.5q0 17 5.5 37T234 384l12 16.5q17 23 25.25 41.25t8.25 35.75q0 24.5-7 53t-7 62q0 47.5 22 84.25T346.75 739 430 777.5t93.5 13q65.5 0 116-21.75t79.5-62.5T748 609v-17.5q0-58.5 7-95.25T772.25 436t20.5-42.25T810 353t7-56.5q0-10.5-2.75-29.5t-7.75-39.25-12-32.75l7.5-9.5q12 29 12 55 0 43-20.5 68.25t-48.5 38.5T695 368q-58.5 19-95 46.25t-46.5 80.25l-34-22.5q16.5-58 55.25-88.5t105.25-52q48.5-16 75-43.75t26.5-61.25q0-38.5-28.25-62.75T682 139.5q-8 0-14 1t-14.5 3.5L620 112.5q9.5-5.5 25-8.75t32-3.25q80.5 0 130.25 52.75T857 297q0 35-7 59t-17.25 44.5-20.5 44.75T795 504t-7 87.5V609q0 56-23.25 102t-62.25 71q5 12.5 6.75 24t1.75 22q0 17-2.25 33.75T706.5 899q0 30 7.5 48.25t15 30 7.5 21.75c0 4.33-2.5 6.5-7.5 6.5-7 0-16.417-4.08-28.25-12.25Q683 981 663.75 960t-35.25-47L581 834.5q-28 0-60.25 26t-46.75 65l-9 25q-12.5 35.5-30 56c-11.667 13.67-24.5 20.5-38.5 20.5m214-243.5q7-34 10.25-59.25T624 682q0-40-17.25-73.25T547.5 540.5t-116.5-81L338 402q-49.5-30.5-71.25-61.25T245 275q0-23.5 8.25-49.5T283 173l48.5-15.5q-18.5 20-32.5 51.25t-14 62.75q0 25 13 45.5t39 37l162.5 102q93 58.5 128.75 113.5T664 675q0 23.5-2.5 46t-8.5 50.5ZM500.5 313 448 299.5l-40.5-28q20-31.5 55.25-48.75t75.75-17.25q18.5 0 35.75 3.5t31.25 9L546 257.5Zm-4.5-12q7.5-26 24.75-41.5t38.75-24.25T600.75 220t32.5-14.5 12.75-22q0-28.5-46.5-46.5T486 119q-63 0-98 17.5t-35 47q0 16.5 13.5 36.5t35 38.5T448 289t48 12m45 819q-12.5 0-27.5-3.75c-10-2.5-18.583-6.58-25.75-12.25q-10.75-8.505-10.75-22.5V829h40v241c0 3.33 2.167 5.92 6.5 7.75s10.167 2.75 17.5 2.75 13.5-.83 18.5-2.5 7.5-4.33 7.5-8c0-10 1.583-20.17 4.75-30.5s9-19 17.5-26Q602 1003 626.5 1003l-3 13q-17-16.5-30-22.5T561 982V809l40 4.5V966q23.5 9.5 39.5 24.5c10.667 10 16 18.83 16 26.5 0 5-2.583 8.42-7.75 10.25q-7.75 2.745-18 6c-6.833 2.17-12.833 6.08-18 11.75s-7.75 14.83-7.75 27.5c0 17.67-5.5 30-16.5 37Q572 1120 541 1120"/></svg>