<svg xmlns="http://www.w3.org/2000/svg" viewBox="0 0 36 36"><path fill="#211f20" d="M36 27c0 2.209-1.791 4-4 4H4c-2.209 0-4-1.791-4-4V9c0-2.209 1.791-4 4-4h28c2.209 0 4 1.791 4 4v18z"/><path fill="#fcfaf3" d="M0 12h36v12H0z"/><path fill="#0f0b0c" d="M9 17v3c0 1.657 1.343 3 3 3s3-1.343 3-3v-3H9z"/><path fill="#0d0d0d" d="M12 16h3v3h-3z"/><path fill="#0d090a" d="M9 16h3v3H9z"/><ellipse fill="#0f0b0c" cx="12" cy="14.5" rx="3" ry="1.5"/><ellipse fill="#0a0601" cx="12" cy="13.75" rx="3" ry=".75"/><path fill="#0c0c0d" d="M7 16h1v7H7zm9 0h1v7h-1z"/><path fill="#030c12" d="M6 22h3v1H6zm9 0h3v1h-3zm-8-7h1v1H7zm9 0h1v1h-1z"/></svg>