<svg xmlns="http://www.w3.org/2000/svg" viewBox="7 80 1012 1040"><path d="M787.5 1120q-27.5 0-45-19.5L535.5 865q-18.5-21.5-30-40T485 780.75 465.5 713Q440 610.5 356 509q-6 1-9.5 1-11 0-18.25-6.25T321 486q0-9.5 3.5-18-18.5-4-28.5-12.5t-10-21 4.25-16.75 18.25-4.25l32.5-41q0-10.5 8.25-13.75T366 355.5q16 0 25.25 12T402.5 400q8.5-2.5 15-2.5 25 0 25 22 0 5.5-1.5 11.5 43 45 93 78.25t107 48.25q41 11 75 30.75T782 642l190.5 202.5q19 20 32 37.25c8.67 11.5 13 22.583 13 33.25 0 12.667-3.83 29.75-11.5 51.25-7.667 21.5-25.667 46.58-54 75.25-18 18.33-37 33.25-57 44.75s-42.167 20.58-66.5 27.25c-16.333 4.33-30 6.5-41 6.5M32 361q-14-5.5-21-14.25T7.5 330q3-7.5 14.25-10.25T46 322q13.5 5 20.5 13.75T70 353q-3 7.5-14 10.25T32 361m258.5 69q-8 0-37-1t-59.5-6q-34-5.5-51.25-14.5t-17.25-20q0-4.5 5.5-9.75t14-9.25q12-6 19.75-14.75T177 333q9.5-27 30.75-42.75t48.75-15.75q.5-13.5 7.25-34t21.5-36.25T324 188.5q17.5 0 25.25 24.25T357 289.5q0 17-.75 37.25t-1.75 43.75q-1 18.5-4.5 31.75t-16.5 20.5-43 7.25m0-29.5q17.5 0 25.75-5t10.25-25q1-10 1.5-25.5t.5-35.5q0-41.5-2.75-63T316.5 225q-6 0-13.75 13.25T289.5 270t-5.5 35.5q-3-.5-6-.5h-5.5q-24.5 0-40 10.25T210 346.5q-3.5 10-8.75 16T186 373q-8 3.5-11.5 6t-3.5 4.5q0 4 11.5 7.25t29.75 5.5 39 3.25 39.25 1m553 644.5c18.333-5.67 37.083-16.75 56.25-33.25Q928.5 987 948 956t19.5-57q0-10-3-18L793 699.5q-17 42.5-48.25 78t-80.75 69ZM500 708q40-18 83.5-27.75t91-11.25q-5.5-19-15.5-38.75T635.5 591q-57-19-98.75-45.75T454.5 480.5q-14.5 30-50.5 42 33 45 56.75 91.5T500 708M123 244.5 84.5 213q-9 5-16 3.75t-15-9.25l-11-10.5q-12.5-11.5-6.75-32T68 118.5Q95.5 92 115.5 85.75t32 6.25l11 11.5q7.5 8 7.75 15.75t-2.75 14.25l31 39q5.5 7-1 23t-19.5 29q-12.5 12.5-28.75 18.75T123 244.5M295.5 154q-9.5 0-16.25-10.75T272.5 117t6.75-26.25T295.5 80t16.25 10.75T318.5 117t-6.75 26.25T295.5 154m95.5 2.5q-7.5-2.5-9.75-11.5t2.25-20.5q4-11 12.25-16.75T411 104.5q7.5 2 9.75 11.25t-2.25 20.75q-4 10.5-12.25 16.25T391 156.5"/></svg>