<svg xmlns="http://www.w3.org/2000/svg" viewBox="-4 80 1032 1040"><path d="M565.5 1061q-19.5 0-40-4.5T483 1043q-35.5-14.505-78-33.75A4284 4284 0 0 1 318.75 969a8385 8385 0 0 1-83.25-40.5Q196 909 167 894.5l8-41.5q58 29.5 104.75 52.75T365 947.5t71 33 62 26.5q37 15 67.5 15c20.333 0 41.833-5.33 64.5-16l286.5-135.5q37-17.5 53.75-44.5T987 757.5q0-12-.75-37.75t-1.5-57.5-1.5-63-.75-53.75q0-24 .75-51t2-54.25 2-52.25.75-44.5q0-44.5-18.25-70.75T911.5 233.5L601.5 130q-32.5-11-62-11-32.5 0-68 13l-302 112q-39 14.5-56.25 42T99 356.5q6 91.5 14.75 191.25T135 758q3.5 29-11 48.75t-35 35-36.75 30.5T36 907.5q0 29.5 25.5 49t68 19.5q38.5 0 66-23.75T223 898h40q0 30-17.5 56.75t-47.5 43.5c-20 11.17-42.833 16.75-68.5 16.75-44.333 0-77.667-11.08-100-33.25Q-4 948.5-4 907.5-4 877 11.75 858t36-32.75 35-27.75 12.25-35Q84.5 666 75.25 564A9106 9106 0 0 1 59 359q-7.5-114 96.5-152.5l302-111q42-15.5 82-15.5 36 0 74.5 13l310 102.5q54 18 79 55.5c16.67 25 25 55.833 25 92.5 0 35.667-.92 71.833-2.75 108.5s-2.75 73.833-2.75 111.5q0 47.5 2.25 96t2.25 98c0 34-7.42 63.417-22.25 88.25Q982.5 883 933.5 906.5L647 1041c-28.667 13.33-55.833 20-81.5 20M288 1120c-25 0-45.25-5.33-60.75-16S204 1080.17 204 1064.5q0-25.995 23.75-43.5c15.833-11.67 35.917-17.5 60.25-17.5s44.417 5.83 60.25 17.5q23.75 17.505 23.75 43.5c0 15.67-7.833 28.83-23.5 39.5s-35.833 16-60.5 16m0-30c15.667 0 28.417-2.92 38.25-8.75S341 1069.83 341 1064.5q0-10.995-14.75-21c-9.833-6.67-22.583-10-38.25-10-15.333 0-28 3.33-38 10q-15 10.005-15 21c0 5.33 4.833 10.92 14.5 16.75S272 1090 288 1090m34.5-301q-6.5-6-7-14.25T321 760l92-100q6.5-7 14.25-7.25t14.25 5.75 7 14.25-5 14.25l-92 100q-15 15-29 2m-113-99q-6.5-5.5-7.25-13.75t5.25-14.75l135.5-147q14-14.5 28.5-1.5 6.5 5.5 7.25 13.75t-5.25 14.75L238 688.5q-13.5 14-28.5 1.5M541 1036l-12-558 40-2 12 558Zm220.5-244.5Q755 786 754 778t4.5-15L845 652.5q5.5-7 13.75-8.25t14.75 4.25q7 5 7.75 13.25T876.5 677L790 787.5q-5.5 7-13.5 8.25t-15-4.25m-209-300q-40 0-86-18-94-37-188-82.25t-188-97.75l19.5-35q96 53.5 188.25 99t182.75 80q20.5 8 37.5 11.5t34 3.5a133.5 133.5 0 0 0 31.5-3.75Q599.5 445 616.5 436q34-18 82-43t100-51.5a14541 14541 0 0 1 99.5-50.25q47.5-23.75 80.5-39.75l17.5 36q-78.5 38-169.75 84t-191.75 99q-21.5 11-41.75 16t-40.25 5m131.5 192q-6.5-5.5-7.5-13.5t4.5-15l126.5-161q5.5-7 13.75-8t14.75 4.5q7 5.5 7.75 13.5T839 519L712.5 680q-5.5 7-13.5 8t-15-4.5"/></svg>