<svg xmlns="http://www.w3.org/2000/svg" viewBox="-54 80 1132 1040"><path d="M512.5 856q-71 0-129.25-34.75t-93-93.25-34.75-129.5 34.75-129.25 93-93T512.5 341.5q71.5 0 129.75 34.75t93 93T770 598.5 735.25 728t-93 93.25T512.5 856M212 410l-88.5-46 13.5-27 88.5 46Zm5.5 56q33.5 0 61.25-15.25t44.5-41.5T340 350q0-22-4.25-40.25T319.25 271 284 222.75t-60.5-68.25q-14.5 23.5-38 42-18.5 14-39.25 19.75a4557 4557 0 0 1-38.5 10.5Q90 231.5 79.5 244q-10 12-12.25 28.25t-4 34T51.5 341a189 189 0 0 1-15.75 23.75Q27 376 13 389q33 13 66.75 31.25t68.25 32T217.5 466M342 758.5l-28-28q161.5-162.5 184-374l40 4q-24 227-196 398M214.5 506q-42.5 0-86.75-18.75T38 444.75t-92-38.25q25-27 44.75-49.5t27.75-39.5q7.5-15 9.25-33.5t5.5-36.25T50 217.5Q64.5 204 83.75 197a693 693 0 0 1 38.5-12.75Q141.5 178.5 155.5 169q14.5-9.5 24.75-22t20-29T222 80q25 42 52.25 73.25t51.5 59T365 270.5t15 71.5q0 45-23 82.25t-60.75 59.5T214.5 506m584 438.5L745 860l25.5-16 53.5 84.5ZM512.5 816q61 0 110.25-29.5t78.25-79 29-109-29-108.75T622.75 411 512.5 381.5q-60.5 0-109.75 29.5t-78.25 78.75-29 108.75 29 109 78.25 79T512.5 816M465 837.5l-26-30Q495 759 537.5 695T606 558.5 638 412l40 3q-6.5 79-34.5 156.5T570 717.25 465 837.5M253.5 356 200 271.5l25.5-16L279 340ZM802 1120c-16.333-28-33.667-52.42-52-73.25s-35.583-40.5-51.75-59Q674 960 659 929.5T644 858q0-45 23-82.25t60.75-59.5T809.5 694q42.5 0 86.75 18.75t89.75 42.5c30.33 15.833 61 28.583 92 38.25q-24.495 27-44.25 49.5c-13.17 15-22.58 28.167-28.25 39.5-4.67 10-7.583 21.167-8.75 33.5a322 322 0 0 1-5.5 36.25Q987.5 970 974 982.5q-14.5 13.5-33.75 20.5a728 728 0 0 1-38.25 12.75c-12.667 3.83-23.833 8.92-33.5 15.25-9.333 6.33-17.5 13.67-24.5 22s-13.667 18-20 29-13.667 23.67-22 38m-1.5-74.5q14.5-23.505 38-42 19-14.5 39.5-20t38.5-10.5 28-17q10.5-12.5 12.5-28.5a2804 2804 0 0 0 4-33.75Q963 876 972.5 859q7-13 15.75-24.25c5.833-7.5 13.42-15.417 22.75-23.75q-32.5-13-66.5-31.25t-68.5-32T806.5 734q-33.5 0-61.25 15.25t-44.5 41.25T684 850q0 21.5 4.25 40t16.5 39T740 977.25t60.5 68.25M887 863l-88.5-46 13.5-27 88.5 46Z"/></svg>