<svg xmlns="http://www.w3.org/2000/svg" viewBox="-17 130 1058 940"><path d="M521 1070c-81 0-154.417-12.83-220.25-38.5s-122.5-61.75-170-108.25Q59.5 853.5 21.25 759T-17 552q0-86.5 21.5-168.75T63 234.75 146 130l884 394c7.33 42.667 11 84.667 11 126 0 60-9.17 115.5-27.5 166.5Q986 893 925 950t-160.5 88.5T521 1070m-147-54.5c6-11.67 12.5-21.667 19.5-30Q404 973 417.75 965t31.75-11.5q18-4 30-10.25T495 930l-95 4q-22 10.5-40.75 27.5T325 1001c7.333 4.33 15.5 7.75 24.5 10.25s17.167 3.92 24.5 4.25m153.5 25.5q5.5 0 10.5-.75c3.333-.5 6.667-.92 10-1.25 5.667-32.67 31.167-60.667 76.5-84q28-14.5 45.75-35.75T696 867l-45.5 18.5q-7.5 10.5-18.25 18.75T606 921.5q-45 27-67.75 53c-15.167 17.333-25.917 38.83-32.25 64.5 6.333 1.33 13.5 2 21.5 2m-182-453.5q-8.5 0-15.75-7.5t-7.25-16.5q0-17 19-33.25T380 514q12 0 12 13.5 0 20.5-15.25 40.25T345.5 587.5m-77.5-130q-9.5 0-16.5-7t-7-17q0-14.5 14.25-24.75T293 398.5q28 0 28 12 0 9-9 20t-21.25 19-22.75 8M506 646q-11 0-18.75-10.5T479.5 610q0-15.5 10.25-31.75T509 562q8 0 16 14.75t8 30.25q0 16.5-7.75 27.75T506 646m200 377q9.5-1.005 19.75-3.75c6.833-1.83 14.25-3.92 22.25-6.25q5.5-25 25-46t51.5-37.5q25-13 40.5-28.75t24-40.5T900.5 796t3-99.5L872 724q0 59.5-5 90.75t-19 48T806 896q-41.5 24.5-66.25 54.75T706 1023M412 913q104 0 205-41t192.25-123.25T974 543L157 180.5Q119.5 226 94 280.75t-38.5 115.5-13 125.25q0 121 44.25 209t127 135.25T412 913m13.5-61.5q-101.5 0-174.5-41.75t-112-119.5T100 504q0-91.5 29.25-172.75T214.5 184.5l30.5 26Q193 271 166.5 345T140 504q0 146 75 226.75t210.5 80.75q136 0 258.75-83.5T900 489.5l34 20.5q-97.5 163.5-229.75 252.5t-278.75 89m240.5-241q-15 0-26.75-16.75T627.5 556.5q0-22.5 12.5-22.5 16 0 32.75 17t16.75 34q0 10.5-7 18t-16.5 7.5M989.5 801c6.667-18 12.33-36.083 17-54.25a345 345 0 0 0 9.5-55.25c-2-16-5.83-32.417-11.5-49.25q-8.5-25.25-20-53.75l-23 29q16 31.5 22 73.25t6 110.25"/></svg>