<svg xmlns="http://www.w3.org/2000/svg" viewBox="-35 80 1094 1040"><path d="M273 777q-43.5 0-69.75-35.5t-26.25-99q0-52.5 20.5-118.75t64.75-153T377.5 171q4.5-7 13.75-10.5t23.25-3.5q32.5 0 67 11t65.25 29T599 236.75 626 280q-50.5 133.5-95.25 228.25t-87 154-84.25 87T273 777m-50 343q-27 0-61.25-11.25c-22.833-7.5-45.75-17.42-68.75-29.75s-44.167-26-63.5-41q-29-22.5-46.75-45T-35 951.5q0-14.5 10.5-23T9 920q27 0 61.25 11.25T139 961t63.5 41 46.75 45c11.833 15 17.75 28.83 17.75 41.5 0 9.67-3.5 17.33-10.5 23s-18.167 8.5-33.5 8.5m-14.5-35q13.5 0 13.5-10.5 0-10.005-15.5-24.75c-10.333-9.83-23.667-20.25-40-31.25q-24.5-16.5-52-31t-52-23.5-39-9Q10 955 10 965.5q0 10 15.5 24.75c10.333 9.83 23.667 20.25 40 31.25s33.667 21.33 52 31 35.667 17.5 52 23.5q24.5 9 39 9m-50-103.5L109 957l109-215 49.5 24.5Zm151-345q-8 0-13.25-5.25T291 618t5.25-13.5 13.25-5.5 13.5 5.5 5.5 13.5-5.5 13.25-13.5 5.25m15-94.5q-8.5 0-14.75-6.25T303.5 521t6.25-14.75T324.5 500t14.75 6.25T345.5 521t-6.25 14.75T324.5 542M782 1051c-24.667 0-42.333-2.83-53-8.5s-16-15-16-28c0-13.33 7.917-26.833 23.75-40.5q23.75-20.5 62.25-37.75t83.5-27.75T970 898c24.667 0 42.33 2.833 53 8.5s16 15 16 28c0 13.333-7.92 26.833-23.75 40.5q-23.75 20.5-62.25 37.75t-83.5 27.75T782 1051m-4.5-32.5c18.333 0 39.833-2.67 64.5-8s48.75-12 72.25-20q35.25-12 58.75-24.75T996.5 943q0-12.5-22-12.5-27.5 0-64.5 8t-72.25 20T779 983.25 755.5 1006c0 8.33 7.333 12.5 22 12.5M418.5 522q-8 0-13.25-5.25T400 503.5t5.25-13.5 13.25-5.5T432 490t5.5 13.5-5.5 13.25-13.5 5.25M271 737q50.5 0 101.5-52t105-157.75T590 259.5l-6 22.5q-29.5-4-64.25-16a429.4 429.4 0 0 1-67-29.75Q420.5 218.5 397 198.5l18-10.5q-71 107.5-114.5 191.25T237 528t-20 118q0 47.5 14.5 69.25T271 737m273-304.5-279.5-9v-40l279.5 9Zm297.5 509-79-266L815 658l79 267Zm-87-385q-8.5 0-14.75-6.25t-6.25-14.75 6.25-14.75 14.75-6.25 14.75 6.25 6.25 14.75-6.25 14.75-14.75 6.25m-61-79.5q-8 0-13.25-5.25T675 458.5t5.25-13.5 13.25-5.5T707 445t5.5 13.5-5.5 13.25-13.5 5.25M770 697q-40.5 0-75.75-36.25t-67.5-113.25T562 348l31.5-37q33 126 61.5 202t56.75 110T771 657q32 0 46.25-22.5t14.25-75q0-41-8.5-95.5t-26.5-128.5L743 118l14.5 9q-29.5 17-66 30.75t-72.75 21.75-66.75 8q-25 0-42-8t-17-18q0-11.5 23.75-25.25T577 109.5t76.5-21.25 72-8.25q24.5 0 37.75 5t15.25 14L834 324q14 57 22 97t11.5 69.5T871 546q0 76-25.5 113.5T770 697m-66.5-290q-8 0-13.25-5.25T685 388.5t5.25-13.5 13.25-5.5T717 375t5.5 13.5-5.5 13.25-13.5 5.25M596 303v-40h210v40Zm453 95-112.5-30.5 8-29.5 112.5 30.5Zm-113.5-90.5-12.5-27 123.5-54.5 12.5 27ZM910 261l-26-16 66.5-109 25.5 16.5Zm-411-48.5-6-51 39.5-8.5 16.5 61Z"/></svg>