<svg xmlns="http://www.w3.org/2000/svg" viewBox="-8 80 1040 1040"><path d="M75 1120c-22.667 0-42.167-8.08-58.5-24.25Q-8 1071.495-8 1038V162.5q0-34 24.5-58.25T74.5 80h875q34 0 58.25 24.25c16.17 16.167 24.25 35.583 24.25 58.25v875c0 22.33-8.08 41.67-24.25 58-16.167 16.33-35.583 24.5-58.25 24.5Zm262.5-149.5q34 0 55-27l475-600q15-19.5 15-43.5 0-29.5-20.25-49.75T812 230q-16 0-30.5 6.75T757 256.5l-393 499-85.5-252q-7-21.5-25-34t-41-12.5q-28 0-48.75 21T143 527q0 10 3 20l124.5 376.5q7 21 25.5 34t41.5 13"/></svg>