<svg xmlns="http://www.w3.org/2000/svg" viewBox="182 80 661 1041"><path d="M610.5 1120c-8.667 0-16.667-1.17-24-3.5l-317-96c-20-6-36.167-16.92-48.5-32.75Q202.5 964 202 932.5l-3.5-240L182 399q-1.5-29 12.5-52.25T235 311l142.5-66.5q26-12 53-5.5l334 85q22.5 5.5 29.75 16.75T801 372.5l-6.5 316 22 262q2.5 27.5-10 49.5c-8.333 14.67-20.5 26.83-36.5 36.5l-121.5 73q-18 10.5-38 10.5m-187-277q-34 0-62.25-21.5t-44.75-58-16.5-81q0-50.5 27.75-86.5T394 560q34.5 0 62.5 21.5t44.5 57.75T517.5 720q0 51-27.5 87t-66.5 36M591 1087.5l-18-326-4-285 39.5-6 4.5 289 18.5 325.5Zm7.5-8c10.667 3 20.5 1.83 29.5-3.5l121.5-73q29.5-17.5 27-49l-22-264 6-312.5q0-6-3.5-10.5t-9-6l-327.5-83q-13-3.5-26 2.5l-142.5 67q-32.5 15-30 49.5l16.5 294 3.5 241q1 39 39 51Zm-5-588-393-97.5 9.5-39 379 94 175.5-92.5 17.5 36Zm-22-84.5q-22 0-37.5-7.75t-15.5-18.75q0-10.5 15.5-18.25t37.5-7.75 37.25 7.75T624 380.5q0 11-15.25 18.75T571.5 407M552 371V203.5q0-27.5 15.75-47.75T610 129l203-48.5q9.5-2.5 17.5 2.25T841 97.5t-2 18.5-14.5 11l-203 49.5q-9.5 2-15 9.5t-5.5 18.5V371Z"/></svg>